<?xml version="1.0" standalone="no"?><!DOCTYPE svg PUBLIC "-//W3C//DTD SVG 1.1//EN" "http://www.w3.org/Graphics/SVG/1.1/DTD/svg11.dtd"><svg t="1659332705667" class="icon" viewBox="0 0 1024 1024" version="1.1" xmlns="http://www.w3.org/2000/svg" p-id="1153" xmlns:xlink="http://www.w3.org/1999/xlink" width="200" height="200"><defs><style type="text/css">@font-face { font-family: feedback-iconfont; src: url("//at.alicdn.com/t/font_1031158_u69w8yhxdu.woff2?t=1630033759944") format("woff2"), url("//at.alicdn.com/t/font_1031158_u69w8yhxdu.woff?t=1630033759944") format("woff"), url("//at.alicdn.com/t/font_1031158_u69w8yhxdu.ttf?t=1630033759944") format("truetype"); }
</style></defs><path d="M224 432a16 16 0 0 1-7.84-2.08l-144-80A16 16 0 0 1 64 336v-64a16 16 0 0 1 32 0v54.56l112 62.24v-139.36L96 187.2V208a16 16 0 0 1-32 0v-48a16 16 0 0 1 7.84-13.76 16 16 0 0 1 16 0l144 80A16 16 0 0 1 240 240v176a16 16 0 0 1-7.84 13.76A16 16 0 0 1 224 432z" p-id="1154"></path><path d="M224 432a16 16 0 0 1-8.16-2.24A16 16 0 0 1 208 416V240a16 16 0 0 1 8.16-13.92l144-80a16 16 0 0 1 16 0A16 16 0 0 1 384 160v176a16 16 0 0 1-8.16 13.92l-144 80A16 16 0 0 1 224 432z m16-182.56v139.36l112-62.24V187.2z" p-id="1155"></path><path d="M224 256a16 16 0 0 1-7.84-2.08l-144-80a16 16 0 0 1 0-27.84l144-80a16 16 0 0 1 16 0l144 80a16 16 0 0 1 0 27.84l-144 80A16 16 0 0 1 224 256z m-111.04-96L224 221.76 335.04 160 224 98.24zM800 432a16 16 0 0 1-7.84-2.08l-144-80A16 16 0 0 1 640 336V160a16 16 0 0 1 7.84-13.76 16 16 0 0 1 16 0l144 80A16 16 0 0 1 816 240v176a16 16 0 0 1-7.84 13.76A16 16 0 0 1 800 432z m-128-105.44l112 62.24v-139.36l-112-62.24z" p-id="1156"></path><path d="M800 432a16 16 0 0 1-8.16-2.24A16 16 0 0 1 784 416V240a16 16 0 0 1 8.32-13.92l34.72-19.36a16 16 0 0 1 21.6 6.4 16 16 0 0 1-6.24 21.6l-26.4 14.72v139.36l112-62.24V187.2l-29.76 16a16 16 0 0 1-16-27.84l53.6-29.76a16 16 0 0 1 16 0 16 16 0 0 1 8.16 14.4v176a16 16 0 0 1-8.16 13.92l-144 80A16 16 0 0 1 800 432z" p-id="1157"></path><path d="M800 256a16 16 0 0 1-7.84-2.08l-144-80a16 16 0 0 1 0-27.84l144-80a16 16 0 0 1 16 0l144 80a16 16 0 0 1 0 27.84l-53.6 29.76a16 16 0 0 1-16-27.84l28.48-16L800 98.24 688.96 160 800 221.76l27.04-15.04a16 16 0 0 1 21.6 6.4 16 16 0 0 1-6.24 21.6l-34.72 19.36A16 16 0 0 1 800 256zM224 960a16 16 0 0 1-7.84-2.08l-144-80A16 16 0 0 1 64 864V688a16 16 0 0 1 7.84-13.76 16 16 0 0 1 16 0l144 80A16 16 0 0 1 240 768v80a16 16 0 0 1-32 0v-70.56L96 715.2v139.36l112 62.24V912a16 16 0 0 1 32 0v32a16 16 0 0 1-7.84 13.76A16 16 0 0 1 224 960z" p-id="1158"></path><path d="M224 960a16 16 0 0 1-8.16-2.24A16 16 0 0 1 208 944v-32a16 16 0 0 1 32 0v4.8l112-62.24V715.2l-112 62.24V848a16 16 0 0 1-32 0v-80a16 16 0 0 1 8.16-13.92l144-80a16 16 0 0 1 16 0A16 16 0 0 1 384 688v176a16 16 0 0 1-8.16 13.92l-144 80A16 16 0 0 1 224 960z" p-id="1159"></path><path d="M224 784a16 16 0 0 1-7.84-2.08l-144-80a16 16 0 0 1 0-27.84l144-80a16 16 0 0 1 16 0l144 80a16 16 0 0 1 0 27.84l-144 80A16 16 0 0 1 224 784z m-111.04-96L224 749.76 335.04 688 224 626.24zM800 960a16 16 0 0 1-7.84-2.08l-144-80A16 16 0 0 1 640 864V688a16 16 0 0 1 7.84-13.76 16 16 0 0 1 16 0l144 80A16 16 0 0 1 816 768v176a16 16 0 0 1-7.84 13.76A16 16 0 0 1 800 960z m-128-105.44l112 62.24v-139.36l-112-62.24z" p-id="1160"></path><path d="M800 960a16 16 0 0 1-8.16-2.24A16 16 0 0 1 784 944V768a16 16 0 0 1 8.16-13.92l144-80a16 16 0 0 1 16 0A16 16 0 0 1 960 688v176a16 16 0 0 1-8.16 13.92l-144 80A16 16 0 0 1 800 960z m16-182.56v139.36l112-62.24V715.2z" p-id="1161"></path><path d="M800 784a16 16 0 0 1-7.84-2.08l-144-80a16 16 0 0 1 0-27.84l53.6-29.76a16 16 0 0 1 16 27.84l-28.48 16L800 749.76 911.04 688 800 626.24l-27.04 15.04a16 16 0 0 1-21.6-6.4 16 16 0 0 1 6.24-21.6l34.72-19.2a16 16 0 0 1 16 0l144 80a16 16 0 0 1 0 27.84l-144 80A16 16 0 0 1 800 784zM195.2 640a16 16 0 0 1-15.04-10.56 352 352 0 0 1 0-234.88 16 16 0 0 1 30.08 10.88 320 320 0 0 0 0 213.12 16 16 0 0 1-9.6 20.48 16.96 16.96 0 0 1-5.44 0.96zM512 864a346.88 346.88 0 0 1-150.88-33.92 16 16 0 0 1 13.76-28.8 321.44 321.44 0 0 0 274.24 0 16 16 0 1 1 13.76 28.8A346.88 346.88 0 0 1 512 864z" p-id="1162"></path><path d="M828.8 640a16.96 16.96 0 0 1-5.44-0.96 16 16 0 0 1-9.6-20.48 320 320 0 0 0 0-213.12 16 16 0 0 1 30.08-10.88 352 352 0 0 1 0 234.88 16 16 0 0 1-15.04 10.56zM656 224a16 16 0 0 1-6.88-1.6A320 320 0 0 0 528 192a16 16 0 0 1 1.6-32 352 352 0 0 1 134.08 33.6A16 16 0 0 1 656 224zM462.56 195.68a16 16 0 0 1-16-13.12 16 16 0 0 1 12-18.4 25.44 25.44 0 0 1 5.76 0 16 16 0 0 1 0 32zM368 224a16 16 0 0 1-6.88-30.4 276.48 276.48 0 0 1 33.92-13.92 16 16 0 1 1 10.24 30.4 257.92 257.92 0 0 0-30.4 12.32 15.04 15.04 0 0 1-6.88 1.6zM536.96 528H448a16 16 0 0 1-16-16v-80a16 16 0 0 1 16-16h88.96A55.04 55.04 0 0 1 592 471.04v1.92A55.04 55.04 0 0 1 536.96 528zM464 496h72.96A23.2 23.2 0 0 0 560 472.96v-1.92A23.2 23.2 0 0 0 536.96 448H464z" p-id="1163"></path><path d="M552 608H448a16 16 0 0 1-16-16v-80a16 16 0 0 1 16-16h104a56 56 0 0 1 0 112zM464 576h88a24 24 0 0 0 0-48H464z" p-id="1164"></path><path d="M448 608h-16a16 16 0 0 1 0-32v-128a16 16 0 0 1 0-32h16a16 16 0 0 1 16 16v160a16 16 0 0 1-16 16z" p-id="1165"></path><path d="M528 448h-64a16 16 0 0 1-16-16v-32a16 16 0 0 1 32 0v16h32v-16a16 16 0 0 1 32 0v32a16 16 0 0 1-16 16zM528 640a16 16 0 0 1-16-16v-16h-32v16a16 16 0 0 1-32 0v-32a16 16 0 0 1 16-16h64a16 16 0 0 1 16 16v32a16 16 0 0 1-16 16z" p-id="1166"></path></svg>