<?xml version="1.0" standalone="no"?><!DOCTYPE svg PUBLIC "-//W3C//DTD SVG 1.1//EN" "http://www.w3.org/Graphics/SVG/1.1/DTD/svg11.dtd"><svg t="1659332831214" class="icon" viewBox="0 0 1024 1024" version="1.1" xmlns="http://www.w3.org/2000/svg" p-id="4489" xmlns:xlink="http://www.w3.org/1999/xlink" width="200" height="200"><defs><style type="text/css">@font-face { font-family: feedback-iconfont; src: url("//at.alicdn.com/t/font_1031158_u69w8yhxdu.woff2?t=1630033759944") format("woff2"), url("//at.alicdn.com/t/font_1031158_u69w8yhxdu.woff?t=1630033759944") format("woff"), url("//at.alicdn.com/t/font_1031158_u69w8yhxdu.ttf?t=1630033759944") format("truetype"); }
</style></defs><path d="M672.512 432.8448c0-13.056-10.624-23.68-23.68-23.68L310.8864 409.1648c-13.056 0-23.68 10.624-23.68 23.68 0 13.056 10.624 23.68 23.68 23.68l337.9456 0C661.8624 456.5248 672.512 445.9008 672.512 432.8448z" p-id="4490"></path><path d="M805.12 50.2272 185.5744 51.7376c-13.056 0-23.68 10.624-23.68 23.68 0 13.056 10.624 23.68 23.7056 23.68l619.5712-1.5104c64.5632 0 117.12 52.5312 117.12 117.12l0 592.7424c0 13.056 10.624 23.68 23.68 23.68s23.68-10.624 23.68-23.7056L969.6512 214.7072C969.6256 124.0064 895.8464 50.2272 805.12 50.2272z" p-id="4491"></path><path d="M637.312 577.8176c-87.4752 0-158.6176 71.168-158.6176 158.6432 0 87.4496 71.1424 158.592 158.6176 158.592s158.6176-71.1424 158.6176-158.592C795.9296 649.0112 724.7872 577.8176 637.312 577.8176zM637.312 863.2064c-69.4784 0-126.0032-56.4992-126.0032-125.9776 0-69.504 56.5248-126.0288 126.0032-126.0288s126.0032 56.5248 126.0032 126.0288C763.2896 806.7072 706.7648 863.2064 637.312 863.2064z" p-id="4492"></path><path d="M310.8864 353.2544l337.9456 0c13.056 0 23.68-10.624 23.68-23.68 0-13.056-10.624-23.68-23.68-23.68L310.8864 305.8944c-13.056 0-23.68 10.624-23.68 23.68C287.2064 342.6304 297.8304 353.2544 310.8864 353.2544z" p-id="4493"></path><path d="M730.5984 713.984c-1.9456-6.1184-7.0912-10.4704-13.44-11.3664l-44.9024-6.5536-20.096-40.7552c-5.5552-10.9568-24.2176-11.0336-29.824 0.0768l-20.0704 40.6784-44.8512 6.5536c-6.3488 0.896-11.4944 5.248-13.3888 11.2128-1.9968 5.9904-0.384 12.7232 4.1728 17.152l32.4864 31.6672-7.6544 44.7232c-1.0496 6.1952 1.5872 12.5952 6.4768 16.128 5.0432 3.7888 12.3648 4.2496 17.6896 1.4336l40.0896-21.1456 40.2688 21.1968c2.4064 1.2288 5.0432 1.8688 7.6544 1.8688 3.5328 0 7.0144-1.1776 9.8048-3.2512 5.1712-3.7888 7.68-10.0608 6.5536-16.256l-7.68-44.6976 32.5376-31.7184C730.9312 726.4512 732.544 719.744 730.5984 713.984zM664.2944 744.96c-3.8656 3.8912-5.632 9.4208-4.6592 14.6944l3.456 20.1216-18.176-9.5488c-2.4064-1.2288-5.0432-1.8688-7.6544-1.8688s-5.2224 0.64-7.7056 1.8944l-18.0224 9.472 3.4048-19.9936c1.024-5.376-0.7168-10.9312-4.736-14.848l-14.592-14.208 20.4032-2.9696c5.2224-0.896 9.7536-4.224 12.2624-9.0624l9.0368-18.304 9.0624 18.432c2.4064 4.6848 6.9376 8.0128 12.4672 8.9856l20.1472 2.9184L664.2944 744.96z" p-id="4494"></path><path d="M721.28 136.9344 209.664 136.9344c-90.7008 0-164.48 73.7792-164.48 164.48l0 506.9056C45.184 899.0208 118.9632 972.8 209.664 972.8l511.5904 0c90.7008 0 164.48-73.7792 164.48-164.48L885.7344 301.4144C885.76 210.7136 811.9808 136.9344 721.28 136.9344zM721.28 925.44 209.664 925.44c-64.5888 0-117.12-52.5568-117.12-117.12L92.544 301.4144c0-64.5888 52.5312-117.12 117.12-117.12l511.5904 0c64.5632 0 117.12 52.5312 117.12 117.12l0 506.9056C838.4 872.9088 785.8432 925.44 721.28 925.44z" p-id="4495"></path><path d="M203.392 329.5744m-28.16 0a1.1 1.1 0 1 0 56.32 0 1.1 1.1 0 1 0-56.32 0Z" p-id="4496"></path><path d="M203.392 432.8448m-28.16 0a1.1 1.1 0 1 0 56.32 0 1.1 1.1 0 1 0-56.32 0Z" p-id="4497"></path></svg>