<?xml version="1.0" standalone="no"?><!DOCTYPE svg PUBLIC "-//W3C//DTD SVG 1.1//EN" "http://www.w3.org/Graphics/SVG/1.1/DTD/svg11.dtd"><svg t="1659332813366" class="icon" viewBox="0 0 1024 1024" version="1.1" xmlns="http://www.w3.org/2000/svg" p-id="4321" xmlns:xlink="http://www.w3.org/1999/xlink" width="200" height="200"><defs><style type="text/css">@font-face { font-family: feedback-iconfont; src: url("//at.alicdn.com/t/font_1031158_u69w8yhxdu.woff2?t=1630033759944") format("woff2"), url("//at.alicdn.com/t/font_1031158_u69w8yhxdu.woff?t=1630033759944") format("woff"), url("//at.alicdn.com/t/font_1031158_u69w8yhxdu.ttf?t=1630033759944") format("truetype"); }
</style></defs><path d="M145.025 271.5875C223.4375 145.5875 361.75625 62 519.3125 62c225.73125 0 412.03125 171.7875 439.3125 393.75h-83.53125c-26.60625-175.275-175.6125-309.4875-355.5-309.4875-179.8875 0-328.89375 134.2125-355.5 309.4875H62V118.25h83.025v153.3375zM580.7375 624.5h108.95625v112.5H580.7375v56.25H471.78125v-56.25H362.9375v-112.5h108.9V568.25H362.9375V455.75h108.9L308.43125 230.75h109.0125l108.84375 141.8625L635.91875 230.75h108.225L580.625 455.75h109.06875v112.5H580.7375v56.25zM80 568.25h84.15c26.6625 175.1625 175.6125 309.2625 355.44375 309.2625 179.775 0 328.78125-134.1 355.5-309.2625H962v337.5h-83.025v-131.34375C798.65 888.03125 667.475 962 519.3125 962 293.525 962 107.225 790.2125 80 568.25z" fill="#262626" p-id="4322"></path></svg>